<?xml version="1.0" encoding="utf-8"?><svg viewBox="0 0 32 32" xmlns="http://www.w3.org/2000/svg" xmlns:xlink="http://www.w3.org/1999/xlink"><style>:root>svg{display:none}:root>svg:target{display:block}</style><svg fill="none" viewBox="0 0 22 22" id="icon-check-done" xmlns="http://www.w3.org/2000/svg"><circle cx="11" cy="11" r="10.25" fill="url(#apaint0_linear_213_594)" stroke="url(#apaint1_linear_213_594)" stroke-width="1.5"/><path d="M15.292 7.096a.978.978 0 00-.738-.167.976.976 0 00-.638.416L10.16 12.82l-2.463-1.717a.888.888 0 00-1.254.24.937.937 0 00.236 1.28l3.3 2.302a.885.885 0 00.704.137.975.975 0 00.639-.415l4.214-6.146a1.027 1.027 0 00-.244-1.406" fill="#fff"/><defs><linearGradient id="apaint0_linear_213_594" x1="1.974" y1="-11.564" x2="11" y2="22" gradientUnits="userSpaceOnUse"><stop stop-color="#A6C2FD"/><stop offset="1" stop-color="#FFC5E2"/></linearGradient><linearGradient id="apaint1_linear_213_594" x1="5.359" y1="1.128" x2="16.077" y2="20.308" gradientUnits="userSpaceOnUse"><stop stop-color="#A6C2FD"/><stop offset="1" stop-color="#fff" stop-opacity=".99"/></linearGradient></defs></svg><svg fill="none" viewBox="0 0 15 15" id="icon-download" xmlns="http://www.w3.org/2000/svg"><path d="M3.823 8.16L7.5 11.835l3.677-3.677" stroke="currentColor" stroke-width="1.2" stroke-miterlimit="10" stroke-linecap="square"/><mask id="ba" style="mask-type:luminance" maskUnits="userSpaceOnUse" x="0" y="0" width="15" height="15"><path d="M14.4 14.4V.6H.6v13.8h13.8z" fill="#fff" stroke="#fff" stroke-width="1.2"/></mask><g mask="url(#ba)" stroke="currentColor" stroke-width="1.2" stroke-miterlimit="10"><path d="M7.5 11.309V.586" stroke-linecap="square" stroke-linejoin="round"/><path d="M0 14.414h15"/></g></svg><svg fill="none" viewBox="0 0 32 32" id="icon-tg" xmlns="http://www.w3.org/2000/svg"><g clip-path="url(#cclip0_213_563)"><path d="M16 32c8.837 0 16-7.163 16-16S24.837 0 16 0 0 7.163 0 16s7.163 16 16 16z" fill="currentColor"/><path fill-rule="evenodd" clip-rule="evenodd" d="M7.242 15.831c4.665-2.032 7.775-3.372 9.331-4.02 4.444-1.847 5.367-2.168 5.969-2.179.132-.002.428.03.62.186.284.23.286.732.254 1.063-.24 2.53-1.283 8.67-1.813 11.503-.224 1.2-.666 1.602-1.093 1.64-.93.086-1.635-.613-2.535-1.203-1.408-.923-2.204-1.498-3.57-2.399-1.58-1.04-.556-1.613.344-2.548.236-.244 4.33-3.968 4.409-4.306.01-.042.019-.2-.075-.283-.093-.083-.231-.055-.33-.032-.142.032-2.392 1.52-6.75 4.46-.638.44-1.217.653-1.735.642-.571-.013-1.67-.323-2.487-.589-1.002-.325-1.798-.498-1.729-1.05.036-.29.433-.584 1.19-.885z" fill="#fff"/></g><defs><linearGradient id="cpaint0_linear_213_563" x1="4.866" y1="-6.933" x2="121.67" y2="23.87" gradientUnits="userSpaceOnUse"><stop stop-color="#A6C2FD"/><stop offset=".246" stop-color="#A6C2FD" stop-opacity=".47"/><stop offset=".577" stop-color="#AEC8FD" stop-opacity=".994"/><stop offset=".746" stop-color="#CFDFFF" stop-opacity=".998"/><stop offset="1" stop-color="#A6C2FD"/></linearGradient><clipPath id="cclip0_213_563"><path fill="#fff" d="M0 0h32v32H0z"/></clipPath></defs></svg><svg fill="none" viewBox="0 0 32 32" id="icon-whtsapp" xmlns="http://www.w3.org/2000/svg"><path d="M16.004 0h-.008C7.174 0 0 7.176 0 16c0 3.5 1.128 6.744 3.046 9.378l-1.994 5.944 6.15-1.966A15.862 15.862 0 0016.004 32C24.826 32 32 24.822 32 16S24.826 0 16.004 0z" fill="currentColor"/><path d="M25.314 22.594c-.386 1.09-1.918 1.994-3.14 2.258-.836.178-1.928.32-5.604-1.204-4.702-1.948-7.73-6.726-7.966-7.036-.226-.31-1.9-2.53-1.9-4.826S7.87 8.372 8.34 7.892c.386-.394 1.024-.574 1.636-.574.198 0 .376.01.536.018.47.02.706.048 1.016.79.386.93 1.326 3.226 1.438 3.462.114.236.228.556.068.866-.15.32-.282.462-.518.734-.236.272-.46.48-.696.772-.216.254-.46.526-.188.996.272.46 1.212 1.994 2.596 3.226 1.786 1.59 3.234 2.098 3.752 2.314.386.16.846.122 1.128-.178.358-.386.8-1.026 1.25-1.656.32-.452.724-.508 1.148-.348.432.15 2.718 1.28 3.188 1.514.47.236.78.348.894.546.112.198.112 1.128-.274 2.22z" fill="#FAFAFA"/><defs><linearGradient id="dpaint0_linear_213_558" x1="4.866" y1="-6.933" x2="121.67" y2="23.87" gradientUnits="userSpaceOnUse"><stop stop-color="#A6C2FD"/><stop offset=".246" stop-color="#A6C2FD" stop-opacity=".47"/><stop offset=".577" stop-color="#AEC8FD" stop-opacity=".994"/><stop offset=".746" stop-color="#CFDFFF" stop-opacity=".998"/><stop offset="1" stop-color="#A6C2FD"/></linearGradient></defs></svg></svg>